<!DOCTYPE svg PUBLIC "-//W3C//DTD SVG 1.1//EN" "http://www.w3.org/Graphics/SVG/1.1/DTD/svg11.dtd">
<!-- Uploaded to: SVG Repo, www.svgrepo.com, Transformed by: SVG Repo Mixer Tools -->
<svg width="800px" height="800px" viewBox="0 -2 20 20" xmlns="http://www.w3.org/2000/svg" fill="#ffffff" stroke="#ffffff">
<g id="SVGRepo_bgCarrier" stroke-width="0"/>
<g id="SVGRepo_tracerCarrier" stroke-linecap="round" stroke-linejoin="round"/>
<g id="SVGRepo_iconCarrier"> <g id="bus-left" transform="translate(-2 -3.997)"> <path id="secondary" fill="#10C43C" d="M3,11H21v5a1,1,0,0,1-1,1H19a2,2,0,0,0-4,0H9a2,2,0,0,0-4,0H4a1,1,0,0,1-1-1V11Z"/> <path id="primary" d="M4.91,17H4a1,1,0,0,1-1-1V10.85L4.77,5.68a1,1,0,0,1,1-.68H20a1,1,0,0,1,1,1V16a1,1,0,0,1-1,1h-.91" fill="none" stroke="#10C43C" stroke-linecap="round" stroke-linejoin="round" stroke-width="2"/> <path id="primary-2" data-name="primary" d="M3,11H21m-6.08,6H9.06M15,5H9v6h6Zm0,12a2,2,0,1,0,2-2A2,2,0,0,0,15,17ZM5,17a2,2,0,1,0,2-2A2,2,0,0,0,5,17Z" fill="none" stroke="#10C43C" stroke-linecap="round" stroke-linejoin="round" stroke-width="2"/> </g> </g>
</svg>