<svg width="109" height="105" viewBox="0 0 109 105" fill="none" xmlns="http://www.w3.org/2000/svg">
<path d="M54.5 50.0797C61.0113 50.0797 67.256 47.4931 71.8602 42.8889C76.4644 38.2847 79.051 32.04 79.051 25.5287C79.051 19.0173 76.4644 12.7727 71.8602 8.16844C67.256 3.56422 61.0113 0.9776 54.5 0.9776C47.9886 0.9776 41.744 3.56422 37.1398 8.16844C32.5356 12.7727 29.9489 19.0173 29.9489 25.5287C29.9489 32.04 32.5356 38.2847 37.1398 42.8889C41.744 47.4931 47.9886 50.0797 54.5 50.0797ZM54.5 60.8663C21.8578 60.8663 0.932281 78.8797 0.932281 87.6502V104.027H108.068V87.6502C108.068 77.0437 88.2574 60.8663 54.5 60.8663Z" fill="#10C43C"/>
</svg>
